<?xml version="1.0" encoding="utf-8"?>
<!-- Generator: Adobe Illustrator 16.0.0, SVG Export Plug-In . SVG Version: 6.00 Build 0)  -->
<!DOCTYPE svg PUBLIC "-//W3C//DTD SVG 1.1//EN" "http://www.w3.org/Graphics/SVG/1.1/DTD/svg11.dtd">
<svg version="1.1" id="Capa_1" xmlns="http://www.w3.org/2000/svg" xmlns:xlink="http://www.w3.org/1999/xlink" x="0px" y="0px"
	 width="410px" height="204.835px" viewBox="0 0 410 204.835" enable-background="new 0 0 410 204.835" xml:space="preserve">
<g>
	<g>
		<path d="M252.258,144.064c-2.388-1.202-5.453-1.748-9.122-1.783c-3.721,0.022-7.099,0.675-10.046,1.939
			c-2.96,1.27-5.438,3.132-7.367,5.532c-1.929,2.392-3.269,5.276-3.982,8.575l-6.779,31.278c-0.687,3.157-0.541,5.92,0.429,8.21
			c0.977,2.312,2.749,4.09,5.262,5.281c2.423,1.154,5.532,1.739,9.243,1.739c0.063,0,0.131-0.001,0.191-0.001
			c3.725-0.022,7.1-0.66,10.034-1.895c2.951-1.238,5.42-3.049,7.343-5.384c1.91-2.321,3.233-5.131,3.931-8.351l4.046-18.649
			l-18.805,0.107l-2.355,10.866l5.946-0.032l-1.657,7.65c-0.193,0.881-0.563,1.647-1.111,2.273c-0.553,0.63-1.263,1.118-2.121,1.446
			c-0.884,0.343-1.889,0.519-2.983,0.525h-0.057c-1.042,0-1.917-0.155-2.604-0.461c-0.66-0.289-1.1-0.693-1.35-1.238
			c-0.254-0.545-0.298-1.182-0.134-1.942l6.781-31.277c0.212-0.978,0.594-1.836,1.137-2.551c0.541-0.71,1.224-1.262,2.032-1.644
			c0.813-0.386,1.728-0.585,2.73-0.59c0.876-0.016,1.613,0.157,2.185,0.481c0.548,0.313,0.906,0.75,1.104,1.335
			c0.209,0.618,0.219,1.372,0.03,2.243l-1.14,5.252l13.442-0.077l1.092-5.035c0.699-3.228,0.596-6.055-0.306-8.402
			C256.378,147.122,254.686,145.297,252.258,144.064"/>
		<path d="M301.376,143.657c-2.529-1.114-5.782-1.653-9.609-1.646c-3.836,0.02-7.304,0.608-10.307,1.744
			c-3.011,1.149-5.522,2.838-7.46,5.026c-1.938,2.189-3.257,4.852-3.921,7.914l-7.193,33.186c-0.666,3.079-0.492,5.755,0.519,7.952
			c1.02,2.207,2.839,3.912,5.41,5.064c2.472,1.108,5.633,1.67,9.397,1.67c0.071,0,0.142-0.001,0.215-0.001
			c3.844-0.02,7.312-0.615,10.308-1.766c3.015-1.159,5.528-2.849,7.457-5.024c1.938-2.177,3.257-4.831,3.918-7.888l7.196-33.185
			c0.668-3.079,0.497-5.763-0.518-7.979C305.774,146.501,303.953,144.796,301.376,143.657 M293.836,157.804l-6.639,30.616
			c-0.221,1.023-0.625,1.904-1.192,2.619c-0.578,0.718-1.308,1.258-2.224,1.65c-0.918,0.393-1.971,0.594-3.131,0.6h-0.047
			c-1.128,0-2.056-0.185-2.754-0.547c-0.681-0.358-1.129-0.85-1.376-1.505c-0.253-0.676-0.268-1.531-0.052-2.541l6.639-30.617
			c0.218-1.005,0.615-1.872,1.186-2.577c0.572-0.716,1.313-1.271,2.194-1.654c0.909-0.392,1.956-0.592,3.108-0.599h0.049
			c1.122,0,2.058,0.185,2.781,0.549c0.689,0.354,1.147,0.847,1.397,1.506C294.028,155.98,294.046,156.822,293.836,157.804"/>
		<path d="M26.961,141.202c2.311,1.338,5.105,2.016,8.312,2.016c3.233,0,6.044-0.678,8.355-2.016
			c2.319-1.345,4.111-3.318,5.317-5.866c1.193-2.523,1.797-5.583,1.797-9.093v-3.065h-8.435v3.065c0,1.901-0.283,3.536-0.845,4.856
			c-0.55,1.29-1.344,2.282-2.362,2.948c-1.023,0.665-2.309,1.003-3.827,1.003c-1.494,0-2.773-0.338-3.808-1.003
			c-1.03-0.666-1.832-1.663-2.381-2.967c-0.561-1.335-0.848-2.962-0.848-4.837V93.505c0-1.902,0.287-3.544,0.848-4.881
			c0.546-1.298,1.351-2.297,2.381-2.964c1.04-0.667,2.319-1.006,3.808-1.006c1.485,0,2.768,0.339,3.805,1.004
			c1.033,0.669,1.834,1.668,2.384,2.965c0.562,1.338,0.845,2.966,0.845,4.838v3.065h8.435V93.46c0-3.507-0.604-6.567-1.797-9.092
			c-1.209-2.551-3-4.524-5.317-5.867c-2.311-1.339-5.122-2.016-8.355-2.016c-3.236,0-6.041,0.678-8.337,2.017
			c-2.304,1.344-4.093,3.316-5.313,5.865c-1.206,2.52-1.819,5.595-1.819,9.137v32.738c0,3.516,0.613,6.576,1.819,9.094
			C22.841,137.884,24.64,139.855,26.961,141.202"/>
		<polygon points="66.157,114.334 80.006,114.334 80.006,142.554 88.396,142.554 88.396,77.149 80.006,77.149 80.006,106.389 
			66.157,106.389 66.157,77.149 57.724,77.149 57.724,142.554 66.157,142.554 		"/>
		<polygon points="124.899,134.607 104.652,134.607 104.652,114.069 122.685,114.069 122.685,106.079 104.652,106.079 
			104.652,85.097 124.899,85.097 124.899,77.149 96.266,77.149 96.266,142.553 124.899,142.553 		"/>
		<path d="M137.71,141.202c2.313,1.338,5.105,2.016,8.312,2.016c3.235,0,6.044-0.678,8.355-2.016
			c2.319-1.345,4.111-3.318,5.317-5.866c1.193-2.526,1.797-5.584,1.797-9.093v-3.065h-8.435v3.065c0,1.901-0.283,3.536-0.845,4.856
			c-0.55,1.29-1.344,2.282-2.361,2.948c-1.021,0.665-2.31,1.003-3.828,1.003c-1.494,0-2.773-0.338-3.808-1.003
			c-1.033-0.666-1.832-1.664-2.38-2.967c-0.562-1.335-0.849-2.962-0.849-4.837V93.505c0-1.902,0.287-3.544,0.849-4.881
			c0.548-1.298,1.347-2.297,2.378-2.964c1.042-0.667,2.323-1.006,3.81-1.006c1.485,0,2.768,0.339,3.805,1.004
			c1.033,0.669,1.834,1.668,2.382,2.965c0.564,1.338,0.847,2.966,0.847,4.838v3.065h8.435V93.46c0-3.506-0.604-6.565-1.797-9.092
			c-1.209-2.551-3-4.524-5.317-5.867c-2.311-1.339-5.12-2.016-8.355-2.016c-3.236,0-6.039,0.678-8.335,2.017
			c-2.306,1.344-4.095,3.316-5.315,5.865c-1.206,2.52-1.818,5.595-1.818,9.137v32.738c0,3.516,0.612,6.576,1.818,9.094
			C133.59,137.884,135.389,139.855,137.71,141.202"/>
		<polygon points="176.863,124.944 183.84,111.932 195.287,143.712 204.324,143.712 188.825,102.636 202.489,77.15 193.207,77.15 
			176.863,109.447 176.863,77.15 168.474,77.15 168.474,142.554 176.863,142.554 		"/>
		<path d="M229.958,119.32h12.127l2.457,12.488h7.954l-12.686-54.887l-0.099-0.436h-7.379l-12.786,55.323h7.954L229.958,119.32z
			 M236.021,88.497l4.691,23.848h-9.381L236.021,88.497z"/>
		<polygon points="263.235,94.704 277.019,131.407 277.157,131.771 283.81,131.771 283.81,76.486 276.647,76.486 276.647,114.13 
			262.653,76.486 256.073,76.486 256.073,131.771 263.235,131.771 		"/>
		<path d="M311.688,77.76c-1.639-0.845-3.645-1.275-5.961-1.275h-15.587v55.323h15.547c2.318,0,4.325-0.436,5.968-1.294
			c1.66-0.871,2.943-2.156,3.815-3.816c0.855-1.64,1.292-3.648,1.292-5.965V87.561c0-2.316-0.429-4.327-1.277-5.977
			C314.634,79.907,313.352,78.623,311.688,77.76 M309.411,120.958c0,1.267-0.296,2.245-0.88,2.907
			c-0.58,0.65-1.422,0.966-2.58,0.966h-8.46v-41.37h8.46c1.158,0,2,0.317,2.577,0.967c0.587,0.663,0.883,1.641,0.883,2.907V120.958z
			"/>
		<polygon points="58.382,163.377 56.795,166.808 202.711,166.808 204.743,158.622 58.654,163.367 		"/>
		<polygon points="31.171,180.956 29.794,183.882 198.265,183.882 200.319,175.7 31.378,180.944 		"/>
		<polygon points="8.178,197.472 6.551,200.957 193.815,200.957 196.003,192.779 8.492,197.465 		"/>
		<path fill="#191818" d="M36.347,18.836c-1.587-0.879-3.514-1.325-5.727-1.325c-2.215,0-4.137,0.446-5.712,1.325
			c-1.584,0.883-2.813,2.183-3.654,3.867c-0.837,1.673-1.261,3.712-1.261,6.06v22.159c0,2.349,0.424,4.388,1.261,6.061
			c0.84,1.682,2.07,2.983,3.653,3.867h0.001c1.576,0.879,3.499,1.325,5.712,1.325c2.212,0,4.14-0.446,5.727-1.325
			c1.593-0.884,2.823-2.19,3.655-3.884c0.825-1.682,1.245-3.725,1.245-6.074v-3.718h-7.942v3.718c0,0.721-0.104,1.337-0.309,1.832
			c-0.202,0.486-0.494,0.846-0.893,1.099c-0.397,0.253-0.895,0.381-1.483,0.381c-0.549,0-1.028-0.128-1.424-0.381
			c-0.395-0.251-0.701-0.622-0.91-1.103c-0.214-0.494-0.323-1.099-0.323-1.798V28.763c0-0.699,0.109-1.31,0.324-1.815
			c0.208-0.488,0.514-0.864,0.909-1.116c0.397-0.252,0.876-0.38,1.424-0.38c0.566,0,1.06,0.133,1.467,0.394
			c0.404,0.261,0.708,0.64,0.908,1.129c0.206,0.505,0.31,1.116,0.31,1.818v3.717h7.942v-3.717c0-2.348-0.42-4.392-1.245-6.074
			C39.169,21.025,37.94,19.719,36.347,18.836"/>
		<path fill="#191818" d="M62.938,19.13c-1.498-0.778-3.318-1.173-5.41-1.173h-11.43v43.77h11.401c2.092,0,3.918-0.394,5.423-1.173
			c1.516-0.783,2.686-1.938,3.479-3.432c0.789-1.488,1.189-3.283,1.189-5.337V27.899c0-2.054-0.4-3.849-1.189-5.336
			C65.607,21.069,64.442,19.914,62.938,19.13 M59.648,28.733v22.218c0,1.029-0.25,1.834-0.746,2.393
			c-0.493,0.558-1.187,0.829-2.119,0.829h-2.834V25.511h2.834c0.931,0,1.625,0.271,2.119,0.829
			C59.398,26.9,59.648,27.705,59.648,28.733"/>
		<path fill="#191818" d="M85.99,17.957h-5.549L70.064,61.44l-0.069,0.287h7.812l1.328-6.731h8.161l1.327,6.731h7.813L85.99,17.957z
			 M80.59,47.622l2.625-13.308l2.625,13.308H80.59z"/>
		<path d="M382.091,42.094h6.49c-0.321-0.565-0.643-1.13-0.979-1.688c-13.137-21.742-35.865-34.723-60.803-34.723
			c-17.249,0-33.902,6.381-46.896,17.967c-12.872,11.478-21.32,27.274-23.788,44.478c-0.015,0.109-0.025,0.219-0.041,0.328h5.58
			c4.925-32.57,32.835-57.069,65.146-57.069C349.307,11.387,369.856,22.838,382.091,42.094"/>
		<path d="M385.641,145.282c-3.434,0-6.318-1.291-6.759-1.498l-0.138-0.069c-25.998-13.971-54.502-12.296-54.765-12.274l1.444-5.245
			c1.148-0.101,28.409-2.309,55.938,12.451c1.127,0.503,4.376,1.512,6.653,0.47c1.288-0.589,2.19-1.807,2.759-3.726
			c0.305-1.235,3.753-15.197,6.282-23.284c-67.387-10.12-74.9-33.155-78.131-43.059l-0.172-0.525
			c-1.418-4.313-1.328-8.025,0.267-11.034c1.973-3.726,5.476-4.821,5.87-4.934l0.295-0.067c37.647-6.579,62.831-2.36,63.884-2.177
			l1.434,0.249l0.642,1.307c11.891,24.291,12.434,55.273,12.46,57.998c0.001,0.102-0.008,0.198-0.026,0.299l-0.125,0.724
			c-0.013,0.073-0.03,0.139-0.055,0.208c-2.449,6.821-7.054,25.529-7.101,25.718l-0.03,0.116c-1.308,4.491-3.942,6.499-5.923,7.393
			C388.778,145.03,387.155,145.281,385.641,145.282 M326.377,58.069c-0.336,0.133-1.622,0.717-2.354,2.158
			c-0.802,1.581-0.753,3.773,0.147,6.515l0.177,0.537c2.9,8.897,9.645,29.575,73.433,39.171
			c-0.428-8.777-2.371-31.963-11.116-50.727C380.865,54.953,357.913,52.587,326.377,58.069"/>
	</g>
	<g display="none">
		<rect x="-171.001" y="306.413" display="inline" width="731.413" height="438.587"/>
		<path display="inline" fill="#FFFFFF" d="M252.258,571.77c-2.388-1.202-5.453-1.748-9.122-1.782
			c-3.721,0.021-7.099,0.674-10.046,1.938c-2.96,1.271-5.438,3.132-7.367,5.532c-1.929,2.393-3.269,5.277-3.982,8.576l-6.779,31.276
			c-0.687,3.157-0.541,5.92,0.429,8.21c0.977,2.313,2.749,4.092,5.262,5.281c2.423,1.155,5.532,1.739,9.243,1.739
			c0.063,0,0.131-0.001,0.191-0.001c3.725-0.021,7.1-0.659,10.034-1.895c2.951-1.237,5.42-3.05,7.343-5.384
			c1.91-2.321,3.233-5.132,3.931-8.352l4.046-18.649l-18.805,0.107l-2.355,10.867l5.946-0.033l-1.657,7.65
			c-0.193,0.88-0.563,1.646-1.111,2.272c-0.553,0.63-1.263,1.118-2.121,1.447c-0.884,0.342-1.889,0.518-2.983,0.523h-0.057
			c-1.042,0-1.917-0.154-2.604-0.46c-0.66-0.29-1.1-0.694-1.35-1.238c-0.254-0.545-0.298-1.182-0.134-1.941l6.781-31.277
			c0.212-0.979,0.594-1.836,1.137-2.552c0.541-0.71,1.224-1.261,2.032-1.645c0.813-0.386,1.728-0.585,2.73-0.59
			c0.876-0.015,1.613,0.157,2.185,0.482c0.548,0.312,0.906,0.75,1.104,1.334c0.209,0.619,0.219,1.372,0.03,2.243l-1.14,5.253
			l13.442-0.077l1.092-5.035c0.699-3.229,0.596-6.055-0.306-8.402C256.378,574.828,254.686,573.003,252.258,571.77"/>
		<path display="inline" fill="#FFFFFF" d="M301.376,571.363c-2.529-1.115-5.782-1.654-9.609-1.647
			c-3.836,0.021-7.304,0.609-10.307,1.745c-3.011,1.148-5.522,2.837-7.46,5.025c-1.938,2.189-3.257,4.852-3.921,7.915l-7.193,33.185
			c-0.666,3.08-0.492,5.755,0.519,7.952c1.02,2.208,2.839,3.912,5.41,5.064c2.472,1.108,5.633,1.671,9.397,1.671
			c0.071,0,0.142-0.001,0.215-0.001c3.844-0.021,7.312-0.616,10.308-1.767c3.015-1.159,5.528-2.85,7.457-5.024
			c1.938-2.177,3.257-4.831,3.918-7.889l7.196-33.185c0.668-3.078,0.497-5.763-0.518-7.979
			C305.774,574.206,303.953,572.502,301.376,571.363 M293.836,585.509l-6.639,30.616c-0.221,1.023-0.625,1.904-1.192,2.619
			c-0.578,0.718-1.308,1.258-2.224,1.65c-0.918,0.394-1.971,0.594-3.131,0.6h-0.047c-1.128,0-2.056-0.185-2.754-0.547
			c-0.681-0.358-1.129-0.85-1.376-1.505c-0.253-0.676-0.268-1.531-0.052-2.541l6.639-30.617c0.218-1.005,0.615-1.872,1.186-2.576
			c0.572-0.717,1.313-1.271,2.194-1.653c0.909-0.393,1.956-0.593,3.108-0.601h0.049c1.122,0,2.058,0.186,2.781,0.549
			c0.689,0.354,1.147,0.848,1.397,1.507C294.028,583.686,294.046,584.527,293.836,585.509"/>
		<path display="inline" fill="#FFFFFF" d="M26.961,568.907c2.311,1.339,5.105,2.016,8.312,2.016c3.233,0,6.044-0.677,8.355-2.016
			c2.319-1.345,4.111-3.318,5.317-5.865c1.193-2.524,1.797-5.583,1.797-9.094v-3.065h-8.435v3.065c0,1.901-0.283,3.535-0.845,4.855
			c-0.55,1.29-1.344,2.282-2.362,2.948c-1.023,0.666-2.309,1.004-3.827,1.004c-1.494,0-2.773-0.338-3.808-1.004
			c-1.03-0.666-1.832-1.662-2.381-2.967c-0.561-1.336-0.848-2.963-0.848-4.837v-32.737c0-1.903,0.287-3.545,0.848-4.881
			c0.546-1.3,1.351-2.299,2.381-2.966c1.04-0.667,2.319-1.006,3.808-1.006c1.485,0,2.768,0.339,3.805,1.005
			c1.033,0.668,1.834,1.667,2.384,2.965c0.562,1.338,0.845,2.967,0.845,4.839v3.063h8.435v-3.063c0-3.509-0.604-6.568-1.797-9.094
			c-1.209-2.551-3-4.523-5.317-5.865c-2.311-1.34-5.122-2.018-8.355-2.018c-3.236,0-6.041,0.679-8.337,2.019
			c-2.304,1.344-4.093,3.314-5.313,5.863c-1.206,2.521-1.819,5.597-1.819,9.139v32.737c0,3.517,0.613,6.575,1.819,9.095
			C22.841,565.589,24.64,567.562,26.961,568.907"/>
		<polygon display="inline" fill="#FFFFFF" points="66.157,542.039 80.006,542.039 80.006,570.259 88.396,570.259 88.396,504.854 
			80.006,504.854 80.006,534.094 66.157,534.094 66.157,504.854 57.724,504.854 57.724,570.259 66.157,570.259 		"/>
		<polygon display="inline" fill="#FFFFFF" points="124.899,562.312 104.652,562.312 104.652,541.773 122.685,541.773 
			122.685,533.784 104.652,533.784 104.652,512.802 124.899,512.802 124.899,504.854 96.266,504.854 96.266,570.258 
			124.899,570.258 		"/>
		<path display="inline" fill="#FFFFFF" d="M137.71,568.907c2.313,1.339,5.105,2.016,8.312,2.016c3.235,0,6.044-0.677,8.355-2.016
			c2.319-1.345,4.111-3.318,5.317-5.865c1.193-2.526,1.797-5.585,1.797-9.094v-3.065h-8.435v3.065c0,1.901-0.283,3.535-0.845,4.855
			c-0.55,1.29-1.344,2.282-2.361,2.948c-1.021,0.666-2.31,1.004-3.828,1.004c-1.494,0-2.773-0.338-3.808-1.004
			c-1.033-0.666-1.832-1.664-2.38-2.967c-0.562-1.336-0.849-2.963-0.849-4.837v-32.737c0-1.903,0.287-3.545,0.849-4.881
			c0.548-1.3,1.347-2.299,2.378-2.966c1.042-0.667,2.323-1.006,3.81-1.006c1.485,0,2.768,0.339,3.805,1.005
			c1.033,0.668,1.834,1.667,2.382,2.965c0.564,1.338,0.847,2.967,0.847,4.839v3.063h8.435v-3.063c0-3.507-0.604-6.566-1.797-9.094
			c-1.209-2.551-3-4.523-5.317-5.865c-2.311-1.34-5.12-2.018-8.355-2.018c-3.236,0-6.039,0.679-8.335,2.019
			c-2.306,1.344-4.095,3.314-5.315,5.863c-1.206,2.521-1.818,5.597-1.818,9.139v32.737c0,3.517,0.612,6.575,1.818,9.095
			C133.59,565.589,135.389,567.562,137.71,568.907"/>
		<polygon display="inline" fill="#FFFFFF" points="176.863,552.649 183.84,539.637 195.287,571.417 204.324,571.417 
			188.825,530.342 202.489,504.854 193.207,504.854 176.863,537.151 176.863,504.854 168.474,504.854 168.474,570.259 
			176.863,570.259 		"/>
		<path display="inline" fill="#FFFFFF" d="M229.958,547.026h12.127l2.457,12.488h7.954l-12.686-54.888l-0.099-0.436h-7.379
			l-12.786,55.323h7.954L229.958,547.026z M236.021,516.202l4.691,23.848h-9.381L236.021,516.202z"/>
		<polygon display="inline" fill="#FFFFFF" points="263.235,522.408 277.019,559.111 277.157,559.476 283.81,559.476 283.81,504.19 
			276.647,504.19 276.647,541.835 262.653,504.19 256.073,504.19 256.073,559.476 263.235,559.476 		"/>
		<path display="inline" fill="#FFFFFF" d="M311.688,505.466c-1.639-0.846-3.645-1.275-5.961-1.275h-15.587v55.323h15.547
			c2.318,0,4.325-0.436,5.968-1.293c1.66-0.872,2.943-2.156,3.815-3.817c0.855-1.64,1.292-3.647,1.292-5.965v-33.172
			c0-2.317-0.429-4.328-1.277-5.978C314.634,507.612,313.352,506.327,311.688,505.466 M309.411,548.664
			c0,1.268-0.296,2.244-0.88,2.906c-0.58,0.65-1.422,0.967-2.58,0.967h-8.46v-41.371h8.46c1.158,0,2,0.317,2.577,0.969
			c0.587,0.662,0.883,1.64,0.883,2.906V548.664z"/>
		<polygon display="inline" fill="#FFFFFF" points="58.382,591.083 56.795,594.513 202.711,594.513 204.743,586.326 58.654,591.072 
					"/>
		<polygon display="inline" fill="#FFFFFF" points="31.171,608.66 29.794,611.589 198.265,611.589 200.319,603.404 31.378,608.649 
					"/>
		<polygon display="inline" fill="#FFFFFF" points="8.178,625.178 6.551,628.663 193.815,628.663 196.003,620.484 8.492,625.17 		
			"/>
		<path display="inline" fill="#FFFFFF" d="M36.347,446.541c-1.587-0.88-3.514-1.324-5.727-1.324c-2.215,0-4.137,0.444-5.712,1.324
			c-1.584,0.884-2.813,2.185-3.654,3.867c-0.837,1.673-1.261,3.712-1.261,6.062v22.157c0,2.35,0.424,4.389,1.261,6.061
			c0.84,1.683,2.07,2.984,3.653,3.868h0.001c1.576,0.879,3.499,1.325,5.712,1.325c2.212,0,4.14-0.446,5.727-1.325
			c1.593-0.884,2.823-2.191,3.655-3.884c0.825-1.683,1.245-3.727,1.245-6.074v-3.717h-7.942v3.717c0,0.72-0.104,1.338-0.309,1.832
			c-0.202,0.485-0.494,0.845-0.893,1.099c-0.397,0.252-0.895,0.38-1.483,0.38c-0.549,0-1.028-0.128-1.424-0.38
			c-0.395-0.251-0.701-0.622-0.91-1.102c-0.214-0.494-0.323-1.101-0.323-1.8V456.47c0-0.7,0.109-1.312,0.324-1.816
			c0.208-0.489,0.514-0.865,0.909-1.116c0.397-0.252,0.876-0.38,1.424-0.38c0.566,0,1.06,0.132,1.467,0.395
			c0.404,0.261,0.708,0.639,0.908,1.129c0.206,0.505,0.31,1.117,0.31,1.817v3.719h7.942v-3.719c0-2.349-0.42-4.392-1.245-6.073
			C39.169,448.729,37.94,447.425,36.347,446.541"/>
		<path display="inline" fill="#FFFFFF" d="M62.938,446.836c-1.498-0.779-3.318-1.173-5.41-1.173h-11.43v43.77h11.401
			c2.092,0,3.918-0.394,5.423-1.173c1.516-0.783,2.686-1.937,3.479-3.432c0.789-1.488,1.189-3.284,1.189-5.337v-23.887
			c0-2.054-0.4-3.85-1.189-5.336C65.607,448.775,64.442,447.62,62.938,446.836 M59.648,456.438v22.219
			c0,1.028-0.25,1.834-0.746,2.392c-0.493,0.559-1.187,0.829-2.119,0.829h-2.834v-28.661h2.834c0.931,0,1.625,0.271,2.119,0.829
			C59.398,454.605,59.648,455.411,59.648,456.438"/>
		<path display="inline" fill="#FFFFFF" d="M85.99,445.663h-5.549l-10.377,43.482l-0.069,0.287h7.812l1.328-6.73h8.161l1.327,6.73
			h7.813L85.99,445.663z M80.59,475.326l2.625-13.308l2.625,13.308H80.59z"/>
		<path display="inline" fill="#FFFFFF" d="M382.091,469.8h6.49c-0.321-0.564-0.643-1.131-0.979-1.688
			c-13.137-21.743-35.865-34.723-60.803-34.723c-17.249,0-33.902,6.381-46.896,17.967c-12.872,11.477-21.32,27.272-23.788,44.477
			c-0.015,0.109-0.025,0.219-0.041,0.328h5.58c4.925-32.57,32.835-57.069,65.146-57.069
			C349.307,439.092,369.856,450.543,382.091,469.8"/>
		<path display="inline" fill="#FFFFFF" d="M385.641,572.986c-3.434,0-6.318-1.289-6.759-1.497l-0.138-0.069
			c-25.998-13.97-54.502-12.296-54.765-12.273l1.444-5.245c1.148-0.102,28.409-2.31,55.938,12.451
			c1.127,0.502,4.376,1.512,6.653,0.471c1.288-0.59,2.19-1.809,2.759-3.728c0.305-1.234,3.753-15.197,6.282-23.283
			c-67.387-10.12-74.9-33.154-78.131-43.059l-0.172-0.526c-1.418-4.312-1.328-8.024,0.267-11.032
			c1.973-3.728,5.476-4.821,5.87-4.935l0.295-0.068c37.647-6.578,62.831-2.359,63.884-2.177l1.434,0.249l0.642,1.308
			c11.891,24.292,12.434,55.272,12.46,57.997c0.001,0.103-0.008,0.198-0.026,0.3l-0.125,0.724c-0.013,0.073-0.03,0.14-0.055,0.208
			c-2.449,6.821-7.054,25.529-7.101,25.718l-0.03,0.116c-1.308,4.491-3.942,6.499-5.923,7.393
			C388.778,572.734,387.155,572.985,385.641,572.986 M326.377,485.773c-0.336,0.135-1.622,0.719-2.354,2.158
			c-0.802,1.581-0.753,3.774,0.147,6.516l0.177,0.537c2.9,8.896,9.645,29.575,73.433,39.171
			c-0.428-8.776-2.371-31.964-11.116-50.728C380.865,482.658,357.913,480.292,326.377,485.773"/>
	</g>
</g>
</svg>
